<?xml version="1.0" encoding="UTF-8" standalone="no"?>
<svg
   xmlns:dc="http://purl.org/dc/elements/1.1/"
   xmlns:cc="http://creativecommons.org/ns#"
   xmlns:rdf="http://www.w3.org/1999/02/22-rdf-syntax-ns#"
   xmlns:svg="http://www.w3.org/2000/svg"
   xmlns="http://www.w3.org/2000/svg"
   xmlns:sodipodi="http://sodipodi.sourceforge.net/DTD/sodipodi-0.dtd"
   xmlns:inkscape="http://www.inkscape.org/namespaces/inkscape"
   width="100mm"
   height="100mm"
   viewBox="0 0 100 100"
   version="1.1"
   id="svg839"
   inkscape:version="1.0.1 (3bc2e813f5, 2020-09-07)"
   sodipodi:docname="Logo.svg">
  <defs
     id="defs833">
    <filter
       inkscape:collect="always"
       style="color-interpolation-filters:sRGB"
       id="filter1466-6"
       x="-4.317865e-05"
       width="1.0000864"
       y="-4.3221386e-05"
       height="1.0000864">
      <feGaussianBlur
         inkscape:collect="always"
         stdDeviation="0.0010808668"
         id="feGaussianBlur1468-7" />
    </filter>
    <filter
       inkscape:collect="always"
       style="color-interpolation-filters:sRGB"
       id="filter1466-6-75"
       x="-4.317865e-05"
       width="1.0000864"
       y="-4.3221386e-05"
       height="1.0000864">
      <feGaussianBlur
         inkscape:collect="always"
         stdDeviation="0.0010808668"
         id="feGaussianBlur1468-7-92" />
    </filter>
    <filter
       inkscape:collect="always"
       style="color-interpolation-filters:sRGB"
       id="filter1466-6-9"
       x="-4.317865e-05"
       width="1.0000864"
       y="-4.3221386e-05"
       height="1.0000864">
      <feGaussianBlur
         inkscape:collect="always"
         stdDeviation="0.0010808668"
         id="feGaussianBlur1468-7-7" />
    </filter>
    <filter
       inkscape:collect="always"
       style="color-interpolation-filters:sRGB"
       id="filter1466-6-1"
       x="-4.317865e-05"
       width="1.0000864"
       y="-4.3221386e-05"
       height="1.0000864">
      <feGaussianBlur
         inkscape:collect="always"
         stdDeviation="0.0010808668"
         id="feGaussianBlur1468-7-29" />
    </filter>
    <filter
       inkscape:collect="always"
       style="color-interpolation-filters:sRGB"
       id="filter1466-6-94"
       x="-4.317865e-05"
       width="1.0000864"
       y="-4.3221386e-05"
       height="1.0000864">
      <feGaussianBlur
         inkscape:collect="always"
         stdDeviation="0.0010808668"
         id="feGaussianBlur1468-7-78" />
    </filter>
    <filter
       inkscape:collect="always"
       style="color-interpolation-filters:sRGB"
       id="filter1466-6-5"
       x="-4.317865e-05"
       width="1.0000864"
       y="-4.3221386e-05"
       height="1.0000864">
      <feGaussianBlur
         inkscape:collect="always"
         stdDeviation="0.0010808668"
         id="feGaussianBlur1468-7-0" />
    </filter>
    <filter
       inkscape:collect="always"
       style="color-interpolation-filters:sRGB"
       id="filter1466-6-0"
       x="-4.317865e-05"
       width="1.0000864"
       y="-4.3221386e-05"
       height="1.0000864">
      <feGaussianBlur
         inkscape:collect="always"
         stdDeviation="0.0010808668"
         id="feGaussianBlur1468-7-6" />
    </filter>
    <filter
       inkscape:collect="always"
       style="color-interpolation-filters:sRGB"
       id="filter1466-6-1-2"
       x="-4.317865e-05"
       width="1.0000864"
       y="-4.3221386e-05"
       height="1.0000864">
      <feGaussianBlur
         inkscape:collect="always"
         stdDeviation="0.0010808668"
         id="feGaussianBlur1468-7-29-0" />
    </filter>
  </defs>
  <sodipodi:namedview
     id="base"
     pagecolor="#ffffff"
     bordercolor="#666666"
     borderopacity="1.0"
     inkscape:pageopacity="0.0"
     inkscape:pageshadow="2"
     inkscape:zoom="0.7"
     inkscape:cx="400"
     inkscape:cy="366.89829"
     inkscape:document-units="mm"
     inkscape:current-layer="layer1"
     inkscape:document-rotation="0"
     showgrid="false"
     inkscape:window-width="1528"
     inkscape:window-height="836"
     inkscape:window-x="72"
     inkscape:window-y="27"
     inkscape:window-maximized="1" />
  <metadata
     id="metadata836">
    <rdf:RDF>
      <cc:Work
         rdf:about="">
        <dc:format>image/svg+xml</dc:format>
        <dc:type
           rdf:resource="http://purl.org/dc/dcmitype/StillImage" />
        <dc:title></dc:title>
      </cc:Work>
    </rdf:RDF>
  </metadata>
  <g
     inkscape:label="Ebene 1"
     inkscape:groupmode="layer"
     id="layer1">
    <g
       id="g1785"
       transform="translate(-34.854179,-18.907639)">
      <path
         id="path1470"
         style="fill:#800000;fill-opacity:1;stroke-width:6.233"
         d="m 134.85418,68.907639 a 50,50 0 0 1 -50.000001,50.000001 50,50 0 0 1 -50,-50.000001 50,50 0 0 1 50,-50 50,50 0 0 1 50.000001,50 z" />
      <path
         id="path1472"
         style="fill:#ffffff;fill-opacity:1;stroke-width:9.69122"
         d="M 129.22956,68.521225 A 44.225437,44.225437 0 0 1 85.004128,112.74666 44.225437,44.225437 0 0 1 40.77869,68.521225 44.225437,44.225437 0 0 1 85.004128,24.295788 44.225437,44.225437 0 0 1 129.22956,68.521225 Z" />
      <path
         id="rect1420-5"
         style="fill:#800000;fill-opacity:1;stroke-width:6.233;filter:url(#filter1466-6)"
         d="m 43.84524,118.9134 v 0 l 30.038921,60.01844 h -60.07785 z"
         sodipodi:nodetypes="ccccc"
         transform="matrix(0.06385824,0.15355985,-0.14753766,0.0613539,140.8854,37.930752)" />
      <path
         id="rect1420-5-28"
         style="fill:#800000;fill-opacity:1;stroke-width:6.233;filter:url(#filter1466-6-75)"
         d="m 43.84524,118.9134 v 0 l 30.038921,60.01844 h -60.07785 z"
         sodipodi:nodetypes="ccccc"
         transform="matrix(0.16630813,3.3167895e-4,-3.1867141e-4,0.15978598,79.348495,5.3272944)" />
      <path
         id="rect1420-5-36"
         style="fill:#800000;fill-opacity:1;stroke-width:6.233;filter:url(#filter1466-6-9)"
         d="m 43.84524,118.9134 v 0 l 30.038921,60.01844 h -60.07785 z"
         sodipodi:nodetypes="ccccc"
         transform="matrix(0.1060652,0.12809636,-0.12307277,0.10190562,129.55296,23.330561)" />
      <path
         id="rect1420-5-31"
         style="fill:#800000;fill-opacity:1;stroke-width:6.233;filter:url(#filter1466-6-1)"
         d="m 43.84524,118.9134 v 0 l 30.038921,60.01844 h -60.07785 z"
         sodipodi:nodetypes="ccccc"
         transform="matrix(0.16225707,-0.03648488,0.03505404,0.15589379,63.327065,8.7239651)" />
      <path
         id="rect1420-5-4"
         style="fill:#800000;fill-opacity:1;stroke-width:6.233;filter:url(#filter1466-6-94)"
         d="m 43.84524,118.9134 v 0 l 30.038921,60.01844 c 24.415815,0 -30.934858,0 -60.07785,0 z"
         sodipodi:nodetypes="ccccc"
         transform="matrix(0.15601326,0.05760534,-0.05534614,0.14989482,99.337803,6.3163731)" />
      <path
         id="rect1420-5-361"
         style="fill:#800000;fill-opacity:1;stroke-width:6.233;filter:url(#filter1466-6-5)"
         d="m 43.84524,118.9134 v 0 l 30.038921,60.01844 h -60.07785 z"
         sodipodi:nodetypes="ccccc"
         transform="matrix(0.13372928,0.09886851,-0.09499116,0.12848479,116.11216,13.038422)"
         inkscape:transform-center-x="2.304874"
         inkscape:transform-center-y="1.3586215" />
      <path
         id="rect1420-5-3"
         style="fill:#800000;fill-opacity:1;stroke-width:6.233;filter:url(#filter1466-6-0)"
         d="m 43.84524,118.9134 v 0 l 30.038921,60.01844 h -60.07785 z"
         sodipodi:nodetypes="ccccc"
         transform="matrix(0.02771272,0.16398325,-0.15755229,0.02662591,147.01284,53.226332)" />
      <path
         id="rect1420-5-31-6"
         style="fill:#800000;fill-opacity:1;stroke-width:6.233;filter:url(#filter1466-6-1-2)"
         d="m 43.84524,118.9134 v 0 l 30.038921,60.01844 h -60.07785 z"
         sodipodi:nodetypes="ccccc"
         transform="matrix(0.1426152,-0.08555354,0.08219837,0.13702222,46.59461,17.91802)" />
    </g>
  </g>
</svg>
